<svg viewBox="0 0 330 200" xmlns="http://www.w3.org/2000/svg"><g><g><g><g><g><line x1="53.1875" y1="177" x2="48.1875" y2="177" style="visibility: inherit;" fill="rgb(0, 0, 0)" stroke="rgb(204, 204, 204)" stroke-width="1px"></line><line x1="53.1875" y1="163.3846153846154" x2="48.1875" y2="163.3846153846154" style="visibility: inherit;" fill="rgb(0, 0, 0)" stroke="rgb(204, 204, 204)" stroke-width="1px"></line><line x1="53.1875" y1="149.76923076923077" x2="48.1875" y2="149.76923076923077" style="visibility: inherit;" fill="rgb(0, 0, 0)" stroke="rgb(204, 204, 204)" stroke-width="1px"></line><line x1="53.1875" y1="136.15384615384616" x2="48.1875" y2="136.15384615384616" style="visibility: inherit;" fill="rgb(0, 0, 0)" stroke="rgb(204, 204, 204)" stroke-width="1px"></line><line x1="53.1875" y1="122.53846153846153" x2="48.1875" y2="122.53846153846153" style="visibility: inherit;" fill="rgb(0, 0, 0)" stroke="rgb(204, 204, 204)" stroke-width="1px"></line><line x1="53.1875" y1="108.92307692307692" x2="48.1875" y2="108.92307692307692" style="visibility: inherit;" fill="rgb(0, 0, 0)" stroke="rgb(204, 204, 204)" stroke-width="1px"></line><line x1="53.1875" y1="95.3076923076923" x2="48.1875" y2="95.3076923076923" style="visibility: inherit;" fill="rgb(0, 0, 0)" stroke="rgb(204, 204, 204)" stroke-width="1px"></line><line x1="53.1875" y1="81.6923076923077" x2="48.1875" y2="81.6923076923077" style="visibility: inherit;" fill="rgb(0, 0, 0)" stroke="rgb(204, 204, 204)" stroke-width="1px"></line><line x1="53.1875" y1="68.07692307692307" x2="48.1875" y2="68.07692307692307" style="visibility: inherit;" fill="rgb(0, 0, 0)" stroke="rgb(204, 204, 204)" stroke-width="1px"></line><line x1="53.1875" y1="54.46153846153847" x2="48.1875" y2="54.46153846153847" style="visibility: inherit;" fill="rgb(0, 0, 0)" stroke="rgb(204, 204, 204)" stroke-width="1px"></line><line x1="53.1875" y1="40.84615384615384" x2="48.1875" y2="40.84615384615384" style="visibility: inherit;" fill="rgb(0, 0, 0)" stroke="rgb(204, 204, 204)" stroke-width="1px"></line><line x1="53.1875" y1="27.230769230769226" x2="48.1875" y2="27.230769230769226" style="visibility: inherit;" fill="rgb(0, 0, 0)" stroke="rgb(204, 204, 204)" stroke-width="1px"></line><line x1="53.1875" y1="13.615384615384613" x2="48.1875" y2="13.615384615384613" style="visibility: inherit;" fill="rgb(0, 0, 0)" stroke="rgb(204, 204, 204)" stroke-width="1px"></line><line x1="53.1875" y1="0" x2="48.1875" y2="0" style="visibility: inherit;" fill="rgb(0, 0, 0)" stroke="rgb(204, 204, 204)" stroke-width="1px"></line></g><g transform="translate(43.1875, 0)"><text x="0" y="177" dx="0em" dy="0.3em" style="text-anchor: end; visibility: hidden; font-family: &quot;Helvetica Neue&quot;, sans-serif; font-size: 12px; font-weight: 200;" fill="rgb(50, 49, 63)" stroke="none" stroke-width="1px">-0.5</text><text x="0" y="163.3846153846154" dx="0em" dy="0.3em" style="text-anchor: end; visibility: inherit; font-family: &quot;Helvetica Neue&quot;, sans-serif; font-size: 12px; font-weight: 200;" fill="rgb(50, 49, 63)" stroke="none" stroke-width="1px">0</text><text x="0" y="149.76923076923077" dx="0em" dy="0.3em" style="text-anchor: end; visibility: hidden; font-family: &quot;Helvetica Neue&quot;, sans-serif; font-size: 12px; font-weight: 200;" fill="rgb(50, 49, 63)" stroke="none" stroke-width="1px">0.5</text><text x="0" y="136.15384615384616" dx="0em" dy="0.3em" style="text-anchor: end; visibility: inherit; font-family: &quot;Helvetica Neue&quot;, sans-serif; font-size: 12px; font-weight: 200;" fill="rgb(50, 49, 63)" stroke="none" stroke-width="1px">1</text><text x="0" y="122.53846153846153" dx="0em" dy="0.3em" style="text-anchor: end; visibility: hidden; font-family: &quot;Helvetica Neue&quot;, sans-serif; font-size: 12px; font-weight: 200;" fill="rgb(50, 49, 63)" stroke="none" stroke-width="1px">1.5</text><text x="0" y="108.92307692307692" dx="0em" dy="0.3em" style="text-anchor: end; visibility: inherit; font-family: &quot;Helvetica Neue&quot;, sans-serif; font-size: 12px; font-weight: 200;" fill="rgb(50, 49, 63)" stroke="none" stroke-width="1px">2</text><text x="0" y="95.3076923076923" dx="0em" dy="0.3em" style="text-anchor: end; visibility: hidden; font-family: &quot;Helvetica Neue&quot;, sans-serif; font-size: 12px; font-weight: 200;" fill="rgb(50, 49, 63)" stroke="none" stroke-width="1px">2.5</text><text x="0" y="81.6923076923077" dx="0em" dy="0.3em" style="text-anchor: end; visibility: inherit; font-family: &quot;Helvetica Neue&quot;, sans-serif; font-size: 12px; font-weight: 200;" fill="rgb(50, 49, 63)" stroke="none" stroke-width="1px">3</text><text x="0" y="68.07692307692307" dx="0em" dy="0.3em" style="text-anchor: end; visibility: hidden; font-family: &quot;Helvetica Neue&quot;, sans-serif; font-size: 12px; font-weight: 200;" fill="rgb(50, 49, 63)" stroke="none" stroke-width="1px">3.5</text><text x="0" y="54.46153846153847" dx="0em" dy="0.3em" style="text-anchor: end; visibility: inherit; font-family: &quot;Helvetica Neue&quot;, sans-serif; font-size: 12px; font-weight: 200;" fill="rgb(50, 49, 63)" stroke="none" stroke-width="1px">4</text><text x="0" y="40.84615384615384" dx="0em" dy="0.3em" style="text-anchor: end; visibility: hidden; font-family: &quot;Helvetica Neue&quot;, sans-serif; font-size: 12px; font-weight: 200;" fill="rgb(50, 49, 63)" stroke="none" stroke-width="1px">4.5</text><text x="0" y="27.230769230769226" dx="0em" dy="0.3em" style="text-anchor: end; visibility: inherit; font-family: &quot;Helvetica Neue&quot;, sans-serif; font-size: 12px; font-weight: 200;" fill="rgb(50, 49, 63)" stroke="none" stroke-width="1px">5</text><text x="0" y="13.615384615384613" dx="0em" dy="0.3em" style="text-anchor: end; visibility: hidden; font-family: &quot;Helvetica Neue&quot;, sans-serif; font-size: 12px; font-weight: 200;" fill="rgb(50, 49, 63)" stroke="none" stroke-width="1px">5.5</text><text x="0" y="0" dx="0em" dy="0.3em" style="text-anchor: end; visibility: hidden; font-family: &quot;Helvetica Neue&quot;, sans-serif; font-size: 12px; font-weight: 200;" fill="rgb(50, 49, 63)" stroke="none" stroke-width="1px">6</text></g><line x1="53.1875" y1="0" x2="53.1875" y2="177" fill="rgb(0, 0, 0)" stroke="rgb(204, 204, 204)" stroke-width="1px"></line></g></g><g transform="translate(53, 0)" clip-path="url(#clip_0)"><clipPath id="clip_0"><rect width="276" height="177"></rect></clipPath><g><g><g><line x1="0" y1="0" x2="0" y2="177" fill="rgb(0, 0, 0)" stroke="rgb(60, 60, 60)" stroke-width="1px" opacity="0.25"></line><line x1="27.681250000000002" y1="0" x2="27.681250000000002" y2="177" fill="rgb(0, 0, 0)" stroke="rgb(60, 60, 60)" stroke-width="1px" opacity="0.25"></line><line x1="55.362500000000004" y1="0" x2="55.362500000000004" y2="177" fill="rgb(0, 0, 0)" stroke="rgb(60, 60, 60)" stroke-width="1px" opacity="0.25"></line><line x1="83.04375" y1="0" x2="83.04375" y2="177" fill="rgb(0, 0, 0)" stroke="rgb(60, 60, 60)" stroke-width="1px" opacity="0.25"></line><line x1="110.72500000000001" y1="0" x2="110.72500000000001" y2="177" fill="rgb(0, 0, 0)" stroke="rgb(60, 60, 60)" stroke-width="1px" opacity="0.25"></line><line x1="138.40625" y1="0" x2="138.40625" y2="177" fill="rgb(0, 0, 0)" stroke="rgb(60, 60, 60)" stroke-width="1px" opacity="0.25"></line><line x1="166.0875" y1="0" x2="166.0875" y2="177" fill="rgb(0, 0, 0)" stroke="rgb(60, 60, 60)" stroke-width="1px" opacity="0.25"></line><line x1="193.76874999999998" y1="0" x2="193.76874999999998" y2="177" fill="rgb(0, 0, 0)" stroke="rgb(60, 60, 60)" stroke-width="1px" opacity="0.25"></line><line x1="221.45000000000002" y1="0" x2="221.45000000000002" y2="177" fill="rgb(0, 0, 0)" stroke="rgb(60, 60, 60)" stroke-width="1px" opacity="0.25"></line><line x1="249.13125" y1="0" x2="249.13125" y2="177" fill="rgb(0, 0, 0)" stroke="rgb(60, 60, 60)" stroke-width="1px" opacity="0.25"></line><line x1="276.8125" y1="0" x2="276.8125" y2="177" fill="rgb(0, 0, 0)" stroke="rgb(60, 60, 60)" stroke-width="1px" opacity="0.25"></line></g><g><line x1="0" y1="177" x2="276.8125" y2="177" fill="rgb(0, 0, 0)" stroke="rgb(60, 60, 60)" stroke-width="1px" opacity="0.25"></line><line x1="0" y1="163.3846153846154" x2="276.8125" y2="163.3846153846154" fill="rgb(0, 0, 0)" stroke="rgb(60, 60, 60)" stroke-width="1px" opacity="0.25"></line><line x1="0" y1="149.76923076923077" x2="276.8125" y2="149.76923076923077" fill="rgb(0, 0, 0)" stroke="rgb(60, 60, 60)" stroke-width="1px" opacity="0.25"></line><line x1="0" y1="136.15384615384616" x2="276.8125" y2="136.15384615384616" fill="rgb(0, 0, 0)" stroke="rgb(60, 60, 60)" stroke-width="1px" opacity="0.25"></line><line x1="0" y1="122.53846153846153" x2="276.8125" y2="122.53846153846153" fill="rgb(0, 0, 0)" stroke="rgb(60, 60, 60)" stroke-width="1px" opacity="0.25"></line><line x1="0" y1="108.92307692307692" x2="276.8125" y2="108.92307692307692" fill="rgb(0, 0, 0)" stroke="rgb(60, 60, 60)" stroke-width="1px" opacity="0.25"></line><line x1="0" y1="95.3076923076923" x2="276.8125" y2="95.3076923076923" fill="rgb(0, 0, 0)" stroke="rgb(60, 60, 60)" stroke-width="1px" opacity="0.25"></line><line x1="0" y1="81.6923076923077" x2="276.8125" y2="81.6923076923077" fill="rgb(0, 0, 0)" stroke="rgb(60, 60, 60)" stroke-width="1px" opacity="0.25"></line><line x1="0" y1="68.07692307692307" x2="276.8125" y2="68.07692307692307" fill="rgb(0, 0, 0)" stroke="rgb(60, 60, 60)" stroke-width="1px" opacity="0.25"></line><line x1="0" y1="54.46153846153847" x2="276.8125" y2="54.46153846153847" fill="rgb(0, 0, 0)" stroke="rgb(60, 60, 60)" stroke-width="1px" opacity="0.25"></line><line x1="0" y1="40.84615384615384" x2="276.8125" y2="40.84615384615384" fill="rgb(0, 0, 0)" stroke="rgb(60, 60, 60)" stroke-width="1px" opacity="0.25"></line><line x1="0" y1="27.230769230769226" x2="276.8125" y2="27.230769230769226" fill="rgb(0, 0, 0)" stroke="rgb(60, 60, 60)" stroke-width="1px" opacity="0.25"></line><line x1="0" y1="13.615384615384613" x2="276.8125" y2="13.615384615384613" fill="rgb(0, 0, 0)" stroke="rgb(60, 60, 60)" stroke-width="1px" opacity="0.25"></line><line x1="0" y1="0" x2="276.8125" y2="0" fill="rgb(0, 0, 0)" stroke="rgb(60, 60, 60)" stroke-width="1px" opacity="0.25"></line></g></g></g><g><g><line x1="0" y1="163.3846153846154" x2="276.8125" y2="163.3846153846154" fill="rgb(0, 0, 0)" stroke="rgb(153, 153, 153)" stroke-width="1.5px"></line></g></g><g><g><line x1="27.681250000000002" y1="0" x2="27.681250000000002" y2="177" fill="rgb(0, 0, 0)" stroke="rgb(153, 153, 153)" stroke-width="1.5px"></line></g></g><g><g><g><g><g><path stroke="rgb(255, 112, 67)" stroke-width="2px" d="M32.0327425,-8.926530546579528L32.12685875,3.4460511575924784L32.16007625,9.818209335819802L32.31509125,9.724610136143383L33.062485,10.778923489684587L33.30054375,11.79829274432069L33.58842875,12.937688036326506L33.79880625,12.27335298219245L34.21956125,15.517801314504936L34.6679975,13.202375507387757L34.972491250000004,17.40435915514675L34.9891,20.46370562338697L35.066607499999996,18.47954844577555L35.088752500000005,22.20684731143089L35.3544925,21.78275125785487L35.39324625,27.242133675116634L35.636841249999996,27.794275883577086L35.80292875,36.0262384075607L36.118495,31.196778422962836L36.27904625,36.24555828636758L36.36762625,27.673411596229613L36.45620625,20.853691955886234L36.76623625,21.960173547580013L37.048584999999996,26.84680851539835L37.1482375,28.718302570473327L37.19806375,34.18971945852334L37.286643749999996,41.204792163087035L37.3032525,33.31073613885593L37.546847500000005,33.725923125105254L37.89563125,30.859037914368002L38.01742875,33.714014450422866L38.0340375,40.13716909318188L38.07832749999999,49.48673395807009L38.299777500000005,38.15799100326848L38.39389375,33.73621288292915L38.465865,41.97204133895434L38.95859125,38.57137817298266L39.290766250000004,40.41931460637937L39.794565,44.07435968949622L39.861,42.4761567577238L40.03816,43.69856666252562L40.0713775,44.87926082951847L40.182102500000006,45.84953602041614L40.20978375,42.838248035777355L40.458915000000005,47.23632695303942L40.52535,43.8591660436968L40.71911875,46.2639982494058L40.9128875,43.84618936548068L40.91842375,48.95537664771203L41.173091250000006,57.65424505272351L41.2672075,57.76868501451608L41.27828,52.946543116253594L41.305961249999996,53.97672875319378L41.4443675,59.0287865541201L41.449903750000004,56.607232236145464L41.51633875,58.99792785381449L41.544019999999996,55.474935923244985L41.704571249999994,61.437640410429864L41.787615,55.03175574096193L41.820832499999995,52.35443282502338L42.5516175,53.88630514003074L42.856111250000005,51.71641581083448L43.1273875,52.45863372487584L43.71976625,55.220663633363L44.11284,58.48927572706182L44.505913750000005,54.89087607466483L44.5225225,50.90121462255395L44.843625,56.794642564895426L45.1868725,58.16016050137716L45.568873749999995,58.40876505716453L45.64638125,57.32795492193769L45.65745375,60.88130698202286L45.66299,64.41828511530484L45.984092499999996,67.56188034042316L46.95293625,68.72183757714113L47.61728625,68.26800104012483L47.716938750000004,65.39878357942064L47.728011249999994,66.47909746511033L48.00482375,73.48677940426525L48.3978975,66.22936669604474L48.6857825,58.34384938891779L48.80204375,62.1243773600728L48.8407975,65.81916620509679L49.433176249999995,66.23289854907031L49.58819125,73.19905963795894L49.74320625,67.43022955671992L50.03109125,66.74745285502242L50.37433875,68.90715675165342L50.91689125,64.4421086696162L51.088515,68.29054795886859L51.116196249999994,73.30218830173528L51.5867775,73.81554201018311L51.59785,74.940747912127L52.04628625,69.88532796457073L52.55562125,71.45161036821997L52.6497375,78.05785187860928L52.76599875,72.06236031704125L53.30855125,64.29144286728304L53.50785625,66.52281571673119L53.53000125,73.14288571440622L53.574291249999995,72.27058348588064L54.194351250000004,78.27468846573962L54.27185875,81.87955101561039L54.48223625,84.66172692730305L54.548671250000005,89.3486660151324L54.78119375,83.7626690615706L55.207485,74.75531115139174L55.22409375,79.85593453465079L55.64484875,78.60428274614823L55.65592125,77.75117784658843L55.95487875,78.80440581989154L56.10989375,83.53525148308013L56.6912,79.1578813480343L57.189462500000005,80.19876901338226L57.2780425,83.58371198011656L57.35555,80.94774270508466L57.69326125,82.54746610104996L58.2302775,86.3270866799077L58.4074375,88.54338271003672L59.04410625,92.38441877620139L59.12715,91.08029660157852L59.370745,88.69399919484322L59.84132625,86.19406509530793L59.9354425,81.42031006525079L59.95205125,76.92570272346256L60.15135625,82.49935840752443L60.19011,85.88174744267985L60.389415,84.8372069586499L60.50567625,92.18243516527407L60.84892375,89.41055535974701L60.95964875,95.7361821010176L61.5741725,88.54533513036154L61.629535000000004,92.80444882989303L62.01153625,95.93086996392329L62.0835075,88.34994510105342L62.116724999999995,85.30170331128934L62.18869625,88.36398741211823L62.5042625,90.80430494633192L62.631596249999994,97.37354015457144L62.6592775,89.35161068848355L62.985916249999995,88.18413553446558L63.783136250000005,89.28237662660632L64.08209375,89.96559217586803L64.242645,91.12390696415117L64.5416025,93.58337113138096L64.75751625000001,93.34246689328263L64.774125,97.6037927779937L64.84056,100.1917878080973L65.01218375,99.11300029188116L65.58795375,98.5219720601056L65.63224375,99.30654715935624L65.7152875,97.80438484445126L66.25230375,98.81949085915723L66.39624624999999,96.16894691816674L66.51804375,94.3819577534438L67.02737875,97.89372744336829L67.07166875,93.49654025677367L67.298655,96.86571308510388L67.80799,97.39711997095415L68.16230999999999,97.72394706074445L68.317325,98.33833578569734L68.32286125,99.01174974600148L68.42805,100.27182626819416L68.55538375,97.38124437389256L68.6605725,100.34837982945592L68.93184875,97.40377299079911L68.98721125,98.52090320640573L69.00382,102.20917325271964L69.08686374999999,102.56288507979622L69.26956,103.28776664193761L70.24394,99.36247336430355L70.2771575,97.99193842884168L70.64808625,101.0738242276776L70.80310125,102.86373534893755L70.85846375,108.5801721885777L71.0522325,106.16801764678357L71.42316125,110.02606551255087L71.60032125,106.88794162698385L71.92696000000001,105.6612046593709L72.12072875,101.39218405414398L72.34217875,99.36384061202365L72.97331125000001,96.7754537261103L73.16708,96.81955341171972L73.2002975,101.141104470644L73.58229875,106.0214616877481L73.82589374999999,106.41718248538962L73.986445,105.31050968361188L74.01412625,108.76959748015943L74.0639525,108.18072354898996L74.562215,106.62749096310135L74.57882375,105.49829910866478L74.73383875,104.75008261696044L74.78920124999999,109.58049805826502L75.11030375000001,107.8815060387507L75.3040725,105.95856148598705L75.492305,102.89542383312055L75.82448,100.36012050494108L76.51097499999999,104.07887155862917L76.52758374999999,106.61158533998614L76.83761375,105.29690244629187L76.98155625,107.24948187463313L76.998165,107.81023324146032L77.11442625,104.28735222632338L77.15318,103.19860273910966L77.4742825,103.07170890756491L77.50750000000001,98.7461327675877L77.81752999999999,99.91014755840794L78.76422875,101.92072728321371L78.8029825,106.09871705476615L78.95246125,108.60948681526654L79.26249125,108.4334324414971L79.43965125,108.6308016465295L79.79397125,109.6539450238322L79.81058,107.62463694697284L79.92130499999999,106.79523318571019L80.10400125000001,113.43712525565266L80.541365,112.6589001880173L80.58011875000001,114.76512138687232L80.65209,113.05498790023628L80.984265,113.48300210082198L81.1503525,114.05252366467973L81.27768625,115.3698507105665L81.37733875,111.64120047009742L81.76487625,111.59344700360198L82.180095,108.64355417581278L82.534415,107.27228336444011L83.37038875,106.86015500648051L83.51433125000001,108.49036901836304L83.97937625,110.48957596071921L84.57729124999999,113.16033674388147L84.616045,113.85531082447548L85.24164125,115.54072345910178L85.25825,109.49793409248049L85.37451125000001,115.05061871190169L85.70115,106.36493495195226L85.7565125,103.40855459440604L85.93920875,108.08062759036979L86.40979,106.41403541699606L86.50390625,106.75469252447085L86.58141375,103.29305473141366L86.66999375,108.7121581761848L86.76411,106.98003390236335L86.98556,108.17507094073629L87.2402275,108.39645377354823L87.24576375000001,110.12777608093896L87.36756125000001,112.11295254548908L87.56133,112.83695668154807L87.7052725,114.75811113039347L87.75509875,111.509459221618L88.04298375,111.57413680440354L88.05959250000001,114.17409009755582L88.24782499999999,111.71420499694902L88.26997,111.10076064383216L88.39730375,112.23937742558716L88.43052125000001,112.30975806182109L88.44159375,112.60166164409715L88.66304374999999,114.91013642743494L88.69626124999999,115.72372302813642L88.76823250000001,114.98840612734422L88.79591375,112.43897227935875L89.15023375,108.89720655698387L89.2554225,113.73270633030144L89.30524875,112.3459019829249L89.68171375,111.47260611883678L89.69278625,111.73614327963243L89.6983225,112.32937445784012L90.02496125,116.44599677465384L90.905225,114.58931714637752L91.19864625,116.52027298600296L91.30937125,117.81771464562448L91.480995,118.56615395381286L91.53082125,119.88468349137905L91.6249375,119.29574145815329L91.71905375,119.38814551153561L91.8906775,120.82748595968766L92.17302625,120.36477780399252L92.30036,116.46021891041346L92.37786750000001,118.36171137977047L92.78755,121.78404752288839L93.4186825,119.4716643729437L93.95016249999999,120.81967927814526L93.97784375,119.78829038666441L94.17714875,120.67856337971311L94.3487725,114.49003753226935L94.88578874999999,120.22696183603782L95.02973125,121.40939516849845L95.05187625,115.52700397755453L95.14045625,112.7336400866576L95.37297875,118.09832866540728L95.72729875,117.35492875858696L95.7439075,119.36213577476795L95.8324875,121.23953062063893L96.3639675,117.98486470945235L96.65738875,120.56214857696489L97.1833325,120.36897541549891L97.83661,115.6289520241078L97.991625,117.20909139057459L98.31826375,116.9407827794671L98.5784675,112.08211881940898L98.9770775,114.65887501942623L99.08226624999999,114.52470170186007L99.320325,116.72229093195776L99.75215250000001,116.97468974794936L99.84626875000001,116.40528270734177L99.99574750000001,117.21128871749306L100.11200875,117.64771262463975L100.17844375,118.0717204843767L100.2614875,119.09874779285146L100.2836325,120.67248158909494L100.37774875,121.40255187307366L100.57705375,123.42294154653612L100.79850375000001,120.70821819817361L100.9812,118.51109182811672L101.5901875,117.93000610594548L101.88360875,120.10020653973166L101.90575375,118.27823996516918L102.01647874999999,119.10310208597878L102.287755,119.45044110435168L102.44830625,124.3483702516707L102.68082875,123.38382730800362L102.9631775,121.08942253449322L103.09051124999999,122.71216589293293L103.41714999999999,123.43037671999673L103.43375875,121.10511026063104L103.793615,124.01926760701997L103.95416625,123.58974403178351L104.14239875,121.61837128972253L104.33616749999999,122.98924120310551L104.55208125,125.76131894431063L104.9562275,124.09233493307009L105.06141625,123.19704074267426L105.18321375,126.72860199206171L105.63718625,127.62574619784274L106.4177975,128.67268532035266L106.78319,128.74937414193508L106.82194375,130.83638887214505L106.87177,128.14925191031142L106.96588625,126.58328984881419L107.03232125,123.14780720525738L107.06553875,122.52150241315312L107.3921775,119.50490941503382L107.66899,120.57190894194913L107.92919375000001,121.40190907460456L108.12849875,122.27135693011195L108.26136875,123.06103775625397L108.2779775,123.34626379491027L108.69319625,123.13260602650954L108.72641375,122.21150935799932L108.89250125,120.6537776921546L108.9423275,120.88889917660961L108.9644725,113.60222671769202L108.99769,119.52208730002909L109.507025,115.11771322831223L109.51256125,115.67829364450216L109.55685125000001,119.43927126703296L109.57899625,119.62483071570637L109.6731125,117.2158888040623L110.0274325,119.42863767955089L110.13262125,120.40152579315534L110.32085375,121.96192452494199L110.88001500000001,127.1116867851251L111.22879875000001,126.70334767875048L111.48346624999999,125.93745229175487L111.72706124999999,120.09990202092224L111.83225,123.58468851820334L112.20317874999999,125.1824764040269L112.52428124999999,125.40448361521982L112.65161499999999,119.40176650767981L113.3491825,123.64039070400412L113.360255,125.96983800434451L113.53741500000001,128.48985474446368L113.70903874999999,127.82063830027505L114.03567749999999,127.02236397710388L114.82736125000001,126.93548235316015L114.96023125,125.05345236578637L115.0100575,124.08566724114587L115.2979425,120.00651534020379L115.31455125000001,117.04174590250766L116.15052499999999,120.5211931567155L116.2280325,121.5080845361027L116.79273,125.88910302045689L116.90899125,125.05987002244166L117.6453125,128.00930227099815L118.0439225,122.47241492471623L118.16572,122.32373566454183L118.25983624999999,119.27598767616746L118.51450375,123.978006437558L118.70273625,125.19424445155926L119.0625925,122.21440730801348L119.5054925,123.59361387309872L119.53317374999999,125.83232435319367L119.9262475,123.9164754617838L120.1255525,121.93921463715189L120.39682875,124.56965098993274L120.74007625,124.29456022556553L120.7456125,125.59430330042063L120.93384499999999,123.91244788425345L121.0113525,120.66922039845511L121.243875,123.12824600649155L122.16842875,122.98883668012783L122.3400525,120.001832786228L122.528285,123.08301612869292L122.92135875,125.04194237762235L123.1262,126.67751541213624L123.30889625,124.73364518431225L123.40854875,126.11750426040987L123.41962124999999,124.00816413801894L123.546955,125.85951573369404L123.55249125,125.72369971978091L123.5580275,124.91411964911521L123.57463625,126.79409038958087L123.679825,127.97543192422515L123.87359375,125.74587324890248L124.0452175,123.40467707158317L124.26113125,121.19430903560175L124.31649375,126.75895364997996L124.80922,122.40260102516723L124.8867275,121.76937334544937L125.04727874999999,123.37450682681214L125.0860325,125.09061698101958L125.09156875000001,123.91436498888594L125.25212,126.41133043026346L125.4182075,125.94585258003403L125.80020875,124.68497363286397L126.07148500000001,123.22231802676428L126.25418125,120.5489628724621L126.46455875,118.44870400685878L127.0790825,124.58546200319645L127.21748875,122.9494110079998L127.2340975,124.55042582714157L127.28392375,126.78405946838248L127.43893875,127.72604481188887L127.6327075,127.00733792851047L127.69914250000001,128.965881437937L128.0534625,129.47591856724642L128.14757875,130.28025117602994L128.52404375,130.97734145574003L128.64584125,127.86792142541546L128.80085625,127.25508356074525L129.09981375,123.9797791626547L129.836135,123.2430514877779L129.84167125,125.89600702897701L130.61674625,124.29756143555637L131.2866325,127.18809392509678L131.32538625,126.16977046450819L132.0174175,128.75300885932768L132.28315750000002,126.70258057945627L132.64301375,125.25896775485808L132.7482025,126.05095839908606L132.9032175,125.0172879720383L133.025015,126.74780204259658L133.14127625,127.80747931128417L133.51774125,127.70493214865546L133.8111625,130.22823588115446L134.132265,128.21144318984662L134.37586,128.12636090667766L134.53641125000001,132.02005764959975L135.5606175,131.9483594209155L135.64366125,129.88110481698973L135.66027,127.98618713112778L135.7820675,125.90938861012339L135.81528500000002,125.79473671955256L136.08102499999998,126.11745333550117L136.16406875,130.48073576340795L136.41873625,131.32556332617833L136.49624375,126.7922397059238L136.5571425,127.4986395195194L136.86163625,126.05866640354984L136.922535,128.06359776904733L136.9557525,127.85365347754825L137.28239125,127.1557159923564L137.43187,127.87121786768463L137.55920375,130.1170029746743L137.94674125,126.4040290016132L138.06853875,128.3966819610805L138.251235,127.57550294108546L138.34535125,125.56870959070812L138.384105,127.91926389670252L138.605555,124.17500499329495L138.7052075,123.3281421866508L138.738425,126.4691895094486L138.75503375000002,129.40826826834052L139.17578875,130.25815632162818L139.18132500000002,130.43772218999416L139.1923975,131.36365520537038L139.44152875,129.38132506450404L139.6131525,131.12584982831893L139.76263125,129.75935067798315L139.77924,131.96826969974455L139.80692125,131.16874407810056L140.11695125,131.790963908373L140.199995,131.80374604116963L140.24982125,128.86662432664366L140.26089375,129.16490630850356L140.53217,129.1814337231045L140.84773625000003,126.44425815227044L141.09686749999997,128.35117632080562L141.32385375,130.4784360652166L141.395825,127.1810372491294L141.40136125,130.70561934643058L141.52315875000002,131.56069336612862L141.55084000000002,125.56950176204073L141.61173875,124.99762198823359L142.22626250000002,126.13348127487515L142.34252375,126.41088620244622L142.72452499999997,124.20169400455818L142.74113375,124.4305871333844L142.74667,123.94162175875519L143.01241,124.82351499872988L143.14528,124.60863611469296L143.46638249999998,125.94220803600328L143.876065,127.68257565291253L144.09751500000002,128.3893019891197L144.14180499999998,126.29706986763566L144.31896500000002,132.0926694064142L144.39093624999998,131.00203055901903L144.74525625,128.16864633006617L145.1051125,128.93236473191513L145.23244625,127.3936174680882L145.69749125,132.2814771120879L145.7141,126.64780735789229L145.74178125,127.26813234441113L146.11271,128.63748426445824L146.2123625,128.76563759295323L146.62758125,131.1153458519286L146.843495,129.2409586582073L146.84903125,132.76425707411468L147.7182225,133.1337195235638L147.95074499999998,130.69603051761447L147.95628125,132.3464475256918L148.31613750000002,133.51569622285245L148.34935499999997,134.16942430085953L148.4932975,132.77447441500482L148.60955875,125.1091575047909L148.64277625,127.40696284440848L148.97495125,129.22704339232814L149.30158999999998,129.767520982801L149.47875000000002,131.10056234800487L149.51750374999997,130.4680901941188L150.70226125,128.27003369099754L150.8406675,123.18221120181872L150.91263875,123.69355799503577L151.0621175,126.01700572175103L151.10087125,128.78341214658212L151.18945125,133.01547864511292L151.23374125,131.3685645528256L151.31124875,130.58105739207934L151.46626375,133.12248017021065L151.84826500000003,131.24507635426733L151.86487375,134.16364888626737L152.09739624999997,133.66850117152435L152.291165,131.31269745596168L152.49600625,131.39190896629503L152.999805,129.91996000896498L153.088385,132.52252378783677L153.68076375,131.96558580003642L153.71951750000002,133.66434280305276L153.7859525,132.37069585276532L154.06830125,130.239127837047L154.13473625,129.14364704313303L154.63299875,131.76159183552244L154.64960749999997,132.58332402009916L155.46343625,132.0368362153901L155.48558125,129.90798788487606L155.4911175,133.06879986793078L155.72364,134.0708009972543L155.78453875,132.0208246133273L155.81222000000002,130.85327543698867L155.83990125,132.6316440529459L156.02813375000002,130.54374505533087L156.08349625,132.55207397887017L156.22743875,133.6786116299885L156.47657,131.12685331010886L156.60390375,132.4293875345601L156.8862525,134.29016559416135L157.01912249999998,131.65273978812098L157.12431125,128.55844990314603L157.20181875,127.61680245707599L157.384515,127.03316674417357L158.01011125,125.34954691997825L158.2813875,125.8731508759038L158.72982375,127.31073024546134L158.79072250000002,126.623129680879L158.9014475,126.87331069509122L159.2336225,127.23990316070004L159.30559375,128.92940985120237L159.510435,125.25802108619749L159.62116,127.09768103116467L159.68205875,124.89577916090226L160.21353875,126.677259960871L160.99415,129.47831404889152L161.21006375,125.85269309048415L161.37061500000002,126.97894117490111L161.58652875,128.06291290628155L161.85226875,129.06569265337822L162.11800875,130.54038424636607L162.12908125,134.3924198680171L162.17337125,136.13804579023963L162.33945875,133.61845821379598L162.4667925,135.7808602686601L162.54430000000002,131.84588201443233L162.85986624999998,132.39217082665445L163.6404775,133.07634528603876L163.6626225,130.96534533209407L163.9947975,131.7433760045989L164.249465,132.74315685504814L164.41555250000002,131.19942058057228L164.53735,128.80850333805188L164.58164,130.07154365909054L165.2570625,128.80908081481795L165.42315,128.64684379657837L165.5449475,129.6681726947608L165.72764375,131.6961766200679L166.13732625,129.08895238329092L166.35324,126.45850337154982L166.8293575,127.88234826046462L167.23350375,128.71628748340657L167.37190999999999,126.4986381047149L167.44388125,127.52931352794782L167.4937075,128.61514773755258L167.93107125,131.79092900948194L168.25771,129.66982114358777L168.8888425,133.47054585152978L168.97188624999998,128.68575745928447L169.40925,130.52503236963477L169.7524975,130.20262256532618L169.89090374999998,134.43082145108912L170.38362999999998,132.9542994179651L170.58847125,133.7190277274674L170.78223999999997,131.29738016151893L170.96493625,130.60403866121658L171.1919225,130.10606820452367L171.7898375,131.48422136118137L171.8784175,132.26079516811168L171.99467875,131.93465677574918L172.044505,132.04931059423933L172.133085,130.11022267445694L172.48186875,131.24384928765755L172.487405,133.56141271100466L172.5649125,133.18214592419145L173.1739,133.3392519942004L173.24587125,131.03354466458478L173.30677,128.48573802182497L173.86039499999998,131.2654532439445L174.23132375,134.18388914149608L174.46384625000002,131.85165713202994L175.33857375,132.97347846289622L175.80361875,128.87117418811042L175.81469125,127.0190609194449L176.0416775,128.11254112660401L176.04721375,133.22377439719608L176.13579375,134.6883957903973L176.207765,134.72174179177142L176.2188375,134.30919069467535L176.76692625,132.85378962637878L177.59736375,131.89470102074728L177.95168375,132.80322370798717L177.98490125,134.37585364136663L178.01811875,135.5109979292963L178.04026374999998,135.519804630627L178.04579999999999,132.12363167182056L178.46101875000002,132.43925803188216L178.68246875,132.64494775290146L178.98696249999998,133.19843112744417L179.65131250000002,133.6880949841682L179.69560249999998,134.50680526672727L179.9613425,136.287018207186L180.3156625,136.63799442131503L180.33227125000002,136.5977213990823L180.503895,141.06147467153698L180.5592575,139.1147352217466L180.59801125,137.19622011031L180.69766375,135.27262478956294L181.01323,135.3563052638463L181.123955,137.37009405408088L181.14056374999998,136.7225204023394L181.25682500000002,130.74707792843648L181.7329425,130.98684664432292L182.23674125000002,131.2721534812602L182.24781374999998,130.79088006741262L182.42497375000002,129.691167955327L182.52462624999998,133.6158459856631L184.091385,133.59695560734446L184.2353275,136.1303042462297L184.4789225,138.55314666757567L184.78341625000002,137.97502303466638L185.12666375,137.37685382021883L185.198635,132.55925000240916L185.70797000000002,131.04029316668175L185.86852125,132.855901768821L186.08443499999998,135.67364881328564L186.44429125000002,133.27588364738392L187.634585,133.37577744830398L188.07194875000002,132.63668426853587L188.21589125,130.77344988161244L188.33768874999998,130.58720280338292L188.4428775,130.37173842508818L188.55360249999998,130.54029763503715L188.58128374999998,132.7719611121737L188.66986375,134.67567558891864L188.73629875,131.576629177192L188.82487874999998,131.25195622265196L188.9743575,133.39753884428194L189.3508225,132.05523794549927L189.62209875,132.99235489439823L189.69407,133.80376529699754L189.73836,131.33213732796472L190.26430374999998,134.4142531541899L190.84561000000002,135.92432353241122L190.88436375,136.23053694755177L190.93419,132.92650494065396L191.2110025,132.95425254295637L191.22761125,130.66795917312677L191.3438725,133.65367729273433L191.4103075,130.51285141453877L191.51549625,132.18837872592053L191.62068499999998,130.52405259096474L192.373615,128.86869888034695L192.82205125,127.72046170732335L192.8275875,128.5681882323267L193.01582,129.6201820991532L193.12100875,129.65885022276754L193.37567625,131.8039234853357L193.77428625,134.86968753931802L193.8019675,136.1849617924014L193.94591,135.63519674243537L194.20057749999998,133.97466764180757L194.28362125,135.3896216875203L194.73759375,135.46310061783305L194.9756525,134.2255427220323L195.08637750000003,136.155973276382L195.11959499999998,138.56466308059643L195.19156625,137.74840148810725L195.34658124999999,134.24051238152356L195.58463999999998,134.22322122761312L196.17701875,134.82819004728847L196.315425,135.45926785210824L196.35417875,134.51583640237072L196.37632375,133.02311293068868L196.92441250000002,134.04069322310204L196.94102125,134.04231489690912L197.16247125,135.9402643317929L197.68287875,137.05425604845175L197.76038625,138.56903812731514L197.86003875,137.2771831470213L198.09256125000002,135.1137742442684L198.64065,138.06446237910876L199.59842125,136.59358384707255L199.8918425,137.85964891382497L200.4897575,134.93756914959033L200.55065625,134.7614346846864L201.231615,134.07515220350498L201.55825375,136.43367764151287L201.763095,134.84534443632938L201.87935624999997,134.82420686749785L202.08419750000002,135.97541899785912L202.2835025,136.1046676062491L202.427445,135.39193896008595L202.7706925,136.67662100342136L203.16376625,133.60125378485546L203.30770875,129.23846836471023L203.52915875,134.1973010203403L203.78382624999998,135.66399484375395L204.1436825,133.59399187724892L204.18243625000002,134.80175392723743L204.22672624999998,135.87672383035908L204.49246624999998,135.46656657172807L204.5422925,132.58562853697464L204.86893125,130.03725693222458L204.9409025,131.75412584119368L205.74365875,134.53573913668362L205.81009375000002,133.77316008844375L205.99279,132.25339228414535L206.2253125,133.72477056271273L206.58516874999998,135.3188183444847L206.99485125,133.15332471863775L207.25505500000003,136.02566180869823L207.45436,136.18595135999803L207.61491125,135.85875237827582L207.7754625,134.4459680442563L207.84743375,131.82385643637713L207.8640425,130.74018321225964L208.229435,135.3209503280516L208.24604374999998,138.65307028310178L208.4841025,136.32796155022513L208.75537875,134.86485678319295L209.06540875000002,137.058853928279L209.79619375000001,134.3235801674955L209.83494750000003,134.43726568971425L209.84048374999998,136.23698428970417L209.8792375,132.80237073904L210.23909375,135.99333999783917L210.39410875,134.5601989200503L210.46054375,134.3497035183369L210.53251500000002,133.11020040425964L210.57126875,130.13803132078877L211.20240125,133.3471548576189L211.22454625,132.9384226260159L211.374025,131.75382749552202L211.3850975,132.87249878924203L211.75602625,133.21874919783815L211.88336,133.35889490121724L212.2708975,135.50618230552107L212.32626000000002,138.36584712645555L212.42037624999998,136.62146599318197L212.45913,134.88035110598938L212.47573875,131.800264132738L212.55324625,134.32133773314763L212.614145,131.82939605507553L213.367075,135.33790787720355L213.57191625,135.03738723930383L213.87641,136.46458075393926L213.91516375,135.52986083275812L214.27501999999998,134.6537279972698L214.41342625000001,134.0288715956782L214.4632525,135.74223692497966L214.5296875,135.44091762701257L214.63487625,133.94738906750064L214.7289925,136.1360906104293L214.81203625,133.55370710180634L215.02795,133.34161727819242L215.094385,132.79856785972035L215.23279125,133.94482532047698L215.39887875000002,136.35526791432505L215.43763249999998,136.196044737489L215.758735,138.06187615702163L216.0134025,137.41362239068513L216.11859125,137.5642352685997L216.157345,138.78616071303853L216.4120125,140.53140849300632L216.6998975,135.29353177711107L216.71650625,134.24308094159528L216.91027499999998,133.44833007688015L217.42514625,133.24720065320957L217.61337874999998,132.9565812949174L217.6299875,133.77383904571641L217.91787250000002,133.9556318429337L217.92340875,136.91079185923218L218.03967,136.59299813635698L218.34416375,137.43130094365807L218.8258175,135.08690307196972L218.83135375,133.58266268580738L218.97529624999999,136.0396545150301L219.04173125,137.10631751482063L219.124775,136.90932719938428L219.2355,137.05841733374143L219.28532625,136.86771411604755L219.3351525,136.4616512691938L219.50124,134.6972340394328L219.77251625,138.39739743856518L220.07701,135.84552959655022L220.25417000000002,134.3833482543807L220.3759675,136.39034797797913L220.78011375,134.38924723159997L221.62162375,137.0769250121449L221.8929,133.75429755195998L222.092205,132.8180761056154L222.43545250000003,133.51231525641734L222.86174375000002,133.30329112728134L222.8783525,136.47786773661284L223.2991075,136.86749613397564L223.41536875,135.78190298698138L223.45965875,136.26501272718875L223.53163,136.28533621834333L223.5427025,135.30142059632723L223.57592,135.85144226698307L223.93024,133.98637936130257L224.1184725,133.2035114182858L224.12954499999998,131.5315218172613L224.13508124999998,133.78190488919782L224.61119875,133.71722874043866L224.6278075,135.58944821586073L224.77728625,135.44036153416826L225.72398500000003,135.90687037110004L225.76273874999998,138.21483661568885L226.12813125,137.3366956967012L226.1558125,137.10604537887136L226.388335,135.1911820841367L226.7315825,136.86987389575037L226.82569875000002,135.79762184017335L226.831235,136.22250546864117L227.1966275,137.80032531851475L227.3073525,139.44458858675281L227.51219375,137.6373786332904L227.51773,136.52498375927064L227.53433875000002,134.95964711180582L227.89973125,137.75642609987182L228.18761625,132.0977945094456L228.27066000000002,134.07422002346215L228.35370375,135.29828978432218L228.44228375,133.91900711568L228.51425500000002,136.29811836254294L228.70802375,136.48775913010746L228.8132125,137.30211569986858L228.85196625,136.48149851449983L230.14191250000002,138.22765007631253L230.4740875,139.13868998528056L230.64017500000003,139.62043551459996L230.74536375,136.56406562241966L231.23809,135.12067760745822L231.45400375,136.80687239094965L231.47614875,134.35698871530803L231.52597500000002,134.44752818865513L231.55919250000002,138.05206026884142L231.69759875,137.147134975873L232.01316500000001,135.1365983592397L232.25122375,134.05924635204002L232.8214575,128.41401522431934L233.15916875000002,123.47562466674773L233.4636625,123.31980903789561L233.64635875000002,124.97821543307813L233.8512,129.72352789823472L234.24981,131.72356093608204L234.2830275,129.9822631564861L234.33285375,133.9490416973033L234.63181125,132.92629040241047L235.04703,133.6959208710732L235.10239249999998,134.20377515659263L235.2352625,133.77192868167248L235.6338725,133.00061170406667L236.1210625,133.59732940101526L236.31483125,134.5889924003302L236.6525425,134.1108588293747L236.75773124999998,132.17903481860446L236.99579,135.35761349669482L237.37779125,135.26909125058836L237.7376475,136.04766828404794L237.85944500000002,135.53625223344568L238.56808500000002,133.6314021133359L239.12724624999998,135.33780046599958L239.43174,131.68243912911055L239.51478375000002,133.53971601849486L239.896785,130.75231975098478L240.0850175,134.90411486953056L240.4947,132.12685238741187L240.58328,133.56609679574717L240.64417875,132.7770671996219L240.83241125,135.31408105073368L241.27531125,136.69593446397505L241.6130225,138.55276084875527L241.61855875,139.1385329962515L241.7016025,139.2117438335128L241.93966125,136.1569684773491L242.05038625,137.90168783108766L242.288445,137.02131801088262L242.31612625000002,138.53737877520916L242.71473625000002,137.84059030792758L243.49534749999998,140.12281129670208L243.51195625,138.30504518144718L243.62268125,136.50043143039213L243.6282175,135.74287524024726L243.64482625,133.75627445468584L244.3811475,137.60149703335793L244.91262749999999,137.3171744350545L245.0233525,136.90923264600397L245.23926625,138.05573826877352L245.300165,137.87056076527787L246.63440125,139.41042819940813L246.87246,136.74332109194947L247.09944625,135.67552845492978L247.48698374999998,130.25236878147274L247.64199875,129.10228372791966L247.9243475,130.63105361981314L248.46136375,123.98412887921727L248.50565375,125.43502787843133L248.6329875,123.54233924298663L248.66066874999999,123.87017189389894L248.754785,127.60287013697788L249.03713375,127.15119466947874L249.24751125,126.98660632600037L249.552005,129.4449215871487L250.304935,116.45564083434584L250.37690625,116.17743550369681L250.77551624999998,117.65277614326845L251.16859000000002,119.22398256875479" style="fill: none;" fill="none"></path></g></g></g></g><g opacity="0.2"><g><g><g><path stroke="rgb(255, 112, 67)" stroke-width="2px" d="M29.09853,-21.52714810004602L29.1981825,7.060996715839082L29.391951249999998,-3.155644710247344L31.26874,-36.1832648057204L31.401609999999998,2.74883585709793L31.63966875,-3.6949618412898246L31.683958750000002,-35.32944664588342L31.955235000000002,6.289838790893555L32.0327425,-7.760258674621582L32.12685875,22.004892055804902L32.16007625,19.376436820397004L32.31509125,9.584211422846863L33.062485,12.360392937293426L33.30054375,13.327346288240875L33.58842875,14.646780747633699L33.79880625,11.276850480299714L34.21956125,20.384473580580476L34.6679975,9.729236896221465L34.972491250000004,23.707334518432617L34.9891,25.052725278414215L35.066607499999996,15.503312697777375L35.088752500000005,27.797795589153594L35.3544925,21.146607178908113L35.39324625,35.43120729006253L35.636841249999996,28.622489195603606L35.80292875,48.3741821875939L36.118495,23.952588448157684L36.27904625,43.81872808016263L36.36762625,14.81519156235916L36.45620625,10.624112496009246L36.76623625,23.619895935058594L37.048584999999996,34.17676096696121L37.1482375,31.525543653048004L37.19806375,42.39684479053204L37.286643749999996,51.7274012198815L37.3032525,21.469652102543762L37.546847500000005,34.34870360447812L37.89563125,26.5587100982666L38.01742875,37.99647925450253L38.0340375,49.77190105731671L38.07832749999999,63.51108125539926L38.299777500000005,21.16487657106839L38.39389375,27.103545702420746L38.465865,54.325784022991485L38.95859125,33.4703834240253L39.290766250000004,43.191219256474426L39.794565,49.55692731417142L39.861,40.078852360065156L40.03816,45.532181519728425L40.0713775,46.65030208000769L40.182102500000006,47.304948806762695L40.20978375,38.32131605881912L40.458915000000005,53.83344532893254L40.52535,38.7934246796828L40.71911875,49.871246557969314L40.9128875,40.21947603959305L40.91842375,56.619157571059006L41.173091250000006,70.70254766024075L41.2672075,57.94034495720497L41.27828,45.71333026885986L41.305961249999996,55.52200720860408L41.4443675,66.6068732555096L41.449903750000004,52.97490075918344L41.51633875,62.58397128031804L41.544019999999996,50.1904480273907L41.704571249999994,70.38169714120718L41.787615,45.42292873676007L41.820832499999995,48.33844845111554L42.5516175,56.18411361254178L42.856111250000005,48.46158181704007L43.1273875,53.57196059593788L43.71976625,59.36370849609375L44.11284,63.39219386761005L44.505913750000005,49.493276596069336L44.5225225,44.916722444387574L44.843625,65.63478447840764L45.1868725,60.20843740609976L45.568873749999995,58.78167189084567L45.64638125,55.70673971909744L45.65745375,66.2113350721506L45.66299,69.72375231522781L45.984092499999996,72.27727317810059L46.95293625,70.46177343221811L47.61728625,67.58724623460037L47.716938750000004,61.09495738836435L47.728011249999994,68.09956829364484L48.00482375,83.99830231299767L48.3978975,55.34324763371394L48.6857825,46.515573428227356L48.80204375,67.79516931680533L48.8407975,71.36134947263278L49.433176249999995,66.85349706503061L49.58819125,83.64830127129188L49.74320625,58.776984434861404L50.03109125,65.72328780247615L50.37433875,72.14671259659988L50.91689125,57.74453654656044L51.088515,74.06320689274715L51.116196249999994,80.81964881603534L51.5867775,74.58557257285484L51.59785,76.62855676504282L52.04628625,62.30219804323636L52.55562125,73.80103397369385L52.6497375,87.9672141441932L52.76599875,63.06912297468918L53.30855125,52.63506669264572L53.50785625,69.86987499090341L53.53000125,83.07299071091873L53.574291249999995,70.96213014309222L54.194351250000004,87.2808459355281L54.27185875,87.28684484041653L54.48223625,88.83499079484206L54.548671250000005,96.3790746468764L54.78119375,75.38367363122794L55.207485,61.24427428612343L55.22409375,87.50686960953934L55.64484875,76.7268050633944L55.65592125,76.47152049724872L55.95487875,80.38424777984619L56.10989375,90.63151997786302L56.6912,72.59182614546555L57.189462500000005,81.76010051140419L57.2780425,88.66112643021803L57.35555,76.9937887925368L57.69326125,84.94705119499794L58.2302775,91.99651754819429L58.4074375,91.86782675523024L59.04410625,98.14597287544838L59.12715,89.12411333964421L59.370745,85.11455308474027L59.84132625,82.44416394600502L59.9354425,74.25967752016507L59.95205125,70.18379171078021L60.15135625,90.85984193361723L60.19011,90.95533099541298L60.389415,83.27039623260498L60.50567625,103.20027747521034L60.84892375,85.25273565145639L60.95964875,105.22462221292349L61.5741725,77.75906467437744L61.629535000000004,99.19311937919029L62.01153625,100.62050166496864L62.0835075,76.97855780674861L62.116724999999995,80.72934062664325L62.18869625,92.95741356336153L62.5042625,94.4647812476525L62.631596249999994,107.22739296693068L62.6592775,77.31871648935171L62.985916249999995,86.43292280343863L63.783136250000005,90.92973826481746L64.08209375,90.99041549976056L64.242645,92.86137914657593L64.5416025,97.27256738222563L64.75751625000001,92.98111053613516L64.774125,103.99578160506029L64.84056,104.0737803532527L65.01218375,97.49481901755699L65.58795375,97.63542971244225L65.63224375,100.48340980823224L65.7152875,95.5511413720938L66.25230375,100.3421498812162L66.39624624999999,92.193131006681L66.51804375,91.70147400635939L67.02737875,103.16138197825505L67.07166875,86.90075947688176L67.298655,101.91947232759917L67.80799,98.19423029972957L68.16230999999999,98.21418769542987L68.317325,99.2599188731267L68.32286125,100.0218706864577L68.42805,102.16194105148315L68.55538375,93.04537153244019L68.6605725,104.79908301280095L68.93184875,92.9868627328139L68.98721125,100.19659852981567L69.00382,107.7415783221905L69.08686374999999,103.09345282041109L69.26956,104.37508898514967L70.24394,93.4745334478525L70.2771575,95.93613602564885L70.64808625,105.69665292593149L70.80310125,105.54860203082745L70.85846375,117.15482744803795L71.0522325,102.54978583409236L71.42316125,115.81313731120183L71.60032125,102.18075579863329L71.92696000000001,103.82109920795148L72.12072875,94.98865314630362L72.34217875,96.32132544884315L72.97331125000001,92.89287339724028L73.16708,96.8857029401339L73.2002975,107.62343105903038L73.58229875,113.34199751340427L73.82589374999999,107.0107636818519L73.986445,103.6505004809453L74.01412625,113.95822917498074L74.0639525,107.29741265223576L74.562215,104.29764208426842L74.57882375,103.80451132700993L74.73383875,103.62775787940392L74.78920124999999,116.82612122022189L75.11030375000001,105.33301800947923L75.3040725,103.07414465684157L75.492305,98.3007173538208L75.82448,96.55716551267183L76.51097499999999,109.65699813916133L76.52758374999999,110.41065601202158L76.83761375,103.32487810575044L76.98155625,110.178351017145L76.998165,108.6513602917011L77.11442625,99.00303070361798L77.15318,101.56547850828905L77.4742825,102.8813681602478L77.50750000000001,92.25776855762189L77.81752999999999,101.65616974463829L78.76422875,104.93659687042236L78.8029825,112.36570171209482L78.95246125,112.37564145601714L79.26249125,108.16935088084294L79.43965125,108.92685545407808L79.79397125,111.18866008978624L79.81058,104.58067483168382L79.92130499999999,105.55112754381621L80.10400125000001,123.39996336056636L80.541365,111.49156258656429L80.58011875000001,117.92445318515485L80.65209,110.48978767028221L80.984265,114.12502340170053L81.1503525,114.90680601046635L81.27768625,117.34584127939664L81.37733875,106.04822510939378L81.76487625,111.52181680385883L82.180095,104.21871493412898L82.534415,105.21537714738112L83.37038875,106.24196246954111L83.51433125000001,110.93569003618681L83.97937625,113.4883863742535L84.57729124999999,117.16647791862488L84.616045,114.89777194536649L85.24164125,118.06884241104126L85.25825,100.43375004254854L85.37451125000001,123.37964564103346L85.70115,93.33640931202815L85.7565125,98.97398405808669L85.93920875,115.08873708431537L86.40979,103.91414715693547L86.50390625,107.26567818568303L86.58141375,98.10059804182787L86.66999375,116.84081334334154L86.76411,104.38184749163115L86.98556,109.96762649829572L87.2402275,108.72852802276611L87.24576375000001,112.72475954202505L87.36756125000001,115.09071724231427L87.56133,113.92296288563655L87.7052725,117.63984280366164L87.75509875,106.63648135845477L88.04298375,111.67115317858183L88.05959250000001,118.07402003728427L88.24782499999999,108.02437734603882L88.26997,110.18059411415688L88.39730375,113.94730259821965L88.43052125000001,112.41532901617197L88.44159375,113.03951701751122L88.66304374999999,118.37284860244164L88.69626124999999,116.94410292918866L88.76823250000001,113.88543077615591L88.79591375,108.61482150738055L89.15023375,103.58455797342154L89.2554225,120.9859559902778L89.30524875,110.26569546186006L89.68171375,110.1626623227046L89.69278625,112.1314490208259L89.6983225,113.21922122515164L90.02496125,122.6209302498744L90.905225,111.80429770396306L91.19864625,119.41670674544115L91.30937125,119.76387713505672L91.480995,119.68881291609544L91.53082125,121.86247779772832L91.6249375,118.41232840831464L91.71905375,119.52675159160907L91.8906775,122.98649663191576L92.17302625,119.67071557044983L92.30036,110.60338057004488L92.37786750000001,121.21395008380597L92.78755,126.91755173756526L93.4186825,116.00308964802669L93.95016249999999,122.8417016359476L93.97784375,118.24120704944318L94.17714875,122.01397286928616L94.3487725,105.2072487611037L94.88578874999999,128.83234829169055L95.02973125,123.18304516718938L95.05187625,106.70341719113863L95.14045625,108.54359425031221L95.37297875,126.14536153353177L95.72729875,116.2398288983565L95.7439075,122.3729462990394L95.8324875,124.05562288944537L96.3639675,113.1028658426725L96.65738875,124.42807437823369L97.1833325,120.07921567329994L97.83661,108.5189169370211L97.991625,119.57930044027475L98.31826375,116.53831986280588L98.5784675,104.79412287932176L98.9770775,118.52400931945213L99.08226624999999,114.32344172551082L99.320325,120.01867477710431L99.75215250000001,117.35328797193674L99.84626875000001,115.55117214643039L99.99574750000001,118.42029773272L100.11200875,118.30234848535977L100.17844375,118.70773227398212L100.2614875,120.63928875556358L100.2836325,123.03308228346017L100.37774875,122.49765729904175L100.57705375,126.45352605672983L100.79850375000001,116.63613317562984L100.9812,115.21540227303139L101.5901875,117.05837752268864L101.88360875,123.3555071904109L101.90575375,115.54529010332547L102.01647874999999,120.34039526719313L102.287755,119.97144963191106L102.44830625,131.6952639726492L102.68082875,121.937012892503L102.9631775,117.64781537422768L103.09051124999999,125.14628093059247L103.41714999999999,124.50769296059242L103.43375875,117.6172105715825L103.793615,128.39050362660333L103.95416625,122.94545866892888L104.14239875,118.66131217663104L104.33616749999999,125.04554607317998L104.55208125,129.9194355561183L104.9562275,121.58885891620929L105.06141625,121.85409945708055L105.18321375,132.02594386614285L105.63718625,128.97146250651434L106.4177975,130.24309400411752L106.78319,128.86440737430866L106.82194375,133.96691096746005L106.87177,124.11854646756099L106.96588625,124.23434675656833L107.03232125,117.99458323992215L107.06553875,121.58204522499672L107.3921775,114.98001991785489L107.66899,122.17240823232211L107.92919375000001,122.64690927358774L108.12849875,123.57552871337303L108.26136875,124.24555899546696L108.2779775,123.77410285289471L108.69319625,122.81211937390842L108.72641375,120.829864355234L108.89250125,118.31718019338754L108.9423275,121.24158140329214L108.9644725,102.67221802931566L108.99769,128.40187817353467L109.507025,108.51115212073692L109.51256125,116.5191642687871L109.55685125000001,125.08073770082913L109.57899625,119.90316988871648L109.6731125,113.6024759365962L110.0274325,122.74776099278377L110.13262125,121.86085796356201L110.32085375,124.30252262262198L110.88001500000001,134.83633017539978L111.22879875000001,126.09083901918851L111.48346624999999,124.78860921126146L111.72706124999999,111.34357661467332L111.83225,128.81186826412494L112.20317874999999,127.57915823276227L112.52428124999999,125.73749443200919L112.65161499999999,110.39769084636981L113.3491825,129.99832699849054L113.360255,129.4640089548551L113.53741500000001,132.26987985464243L113.70903874999999,126.81681363399213L114.03567749999999,125.82495249234714L114.82736125000001,126.80515991724454L114.96023125,122.23040738472572L115.0100575,122.63398955418513L115.2979425,113.88778748879066L115.31455125000001,112.59459174596346L116.15052499999999,125.74036403802725L116.2280325,122.98842160518353L116.79273,132.46063074698816L116.90899125,123.81602052541879L117.6453125,132.43345064383288L118.0439225,114.1670839052934L118.16572,122.10071677428026L118.25983624999999,114.70436569360587L118.51450375,131.03103457964383L118.70273625,127.01860147256117L119.0625925,117.7446515926948L119.5054925,125.6624237207266L119.53317374999999,129.1903900733361L119.9262475,121.042702124669L120.1255525,118.973323400204L120.39682875,128.515305519104L120.74007625,123.88192407901471L120.7456125,127.5439179127033L120.93384499999999,121.38966476000272L121.0113525,115.80437916975755L121.243875,126.81678441854623L122.16842875,122.77972269058228L122.3400525,115.52132694537823L122.528285,127.70479114239032L122.92135875,127.98033175101646L123.1262,129.1308749639071L123.30889625,121.81783984257625L123.40854875,128.19329287455633L123.41962124999999,120.84415395443256L123.546955,128.63654312720666L123.55249125,125.51997569891122L123.5580275,123.69974954311664L123.57463625,129.61404650027936L123.679825,129.7474442261916L123.87359375,122.40153523591849L124.0452175,119.8928828056042L124.26113125,117.87875698162959L124.31649375,135.1059205715473L124.80922,115.86807208794814L124.8867275,120.81953182587257L125.04727874999999,125.78220704885629L125.0860325,127.66478221233075L125.09156875000001,122.14998700068547L125.25212,130.15677859232977L125.4182075,125.24763580468985L125.80020875,122.7936552121089L126.07148500000001,121.02833461761475L126.25418125,116.53893014100882L126.46455875,115.29831570845384L127.0790825,133.79059899770297L127.21748875,120.4953345152048L127.2340975,126.95194805585422L127.28392375,130.13450993024387L127.43893875,129.13902282714844L127.6327075,125.92927760344286L127.69914250000001,131.90369670207684L128.0534625,130.2409742612105L128.14757875,131.48675008920523L128.52404375,132.02297687530518L128.64584125,123.20379137992859L128.80085625,126.33582676373996L129.09981375,119.06682256551889L129.836135,122.13795997546269L129.84167125,129.8754403407757L130.61674625,121.89989304542542L131.2866325,131.5238926594074L131.32538625,124.6422852736253L132.0174175,132.62786645155688L132.28315750000002,123.62693815964919L132.64301375,123.09354851796077L132.7482025,127.23894436542804L132.9032175,123.46678233146667L133.025015,129.34357314843396L133.14127625,129.39699521431555L133.51774125,127.55111140471239L133.8111625,134.013191479903L134.132265,125.18625415288486L134.37586,127.99873748192421L134.53641125000001,137.8606027639829L135.5606175,131.84081207788907L135.64366125,126.78022291110112L135.66027,125.14381060233482L135.7820675,122.7941908286168L135.81528500000002,125.62275888369633L136.08102499999998,126.60152825942406L136.16406875,137.02565940526816L136.41873625,132.59280467033386L136.49624375,119.99225427554204L136.5571425,128.55823923991278L136.86163625,123.89870672959547L136.922535,131.0709948172936L136.9557525,127.53873704029964L137.28239125,126.10880976456862L137.43187,128.94447068067697L137.55920375,133.48568063515884L137.94674125,120.83456804202153L138.06853875,131.38566140028146L138.251235,126.34373441109291L138.34535125,122.55851956514212L138.384105,131.4450953556941L138.605555,118.5586166381836L138.7052075,122.05784797668457L138.738425,131.1807604936453L138.75503375000002,133.8168864066784L139.17578875,131.5329884015597L139.18132500000002,130.70707099254315L139.1923975,132.75255472843463L139.44152875,126.40782985320457L139.6131525,133.7426369740413L139.76263125,127.70960195247943L139.77924,135.28164823238666L139.80692125,129.96945564563458L140.11695125,132.72429365378161L140.199995,131.82291924036466L140.24982125,124.46094175485464L140.26089375,129.61232928129343L140.53217,129.20622484500592L140.84773625000003,122.33849479601933L141.09686749999997,131.2115535736084L141.32385375,133.66932568183313L141.395825,122.2349390249986L141.40136125,135.99249249238235L141.52315875000002,132.84330439567566L141.55084000000002,116.5827143559089L141.61173875,124.13980232752286L142.22626250000002,127.83727020483751L142.34252375,126.82699359380283L142.72452499999997,120.8879057077261L142.74113375,124.77392682662376L142.74667,123.20817369681139L143.01241,126.14635485869188L143.14528,124.2863177886376L143.46638249999998,127.94256591796875L143.876065,130.29312707827643L144.09751500000002,129.4493914934305L144.14180499999998,123.15872168540955L144.31896500000002,140.786068714582L144.39093624999998,129.3660722879263L144.74525625,123.91856998663683L145.1051125,130.07794233468863L145.23244625,125.0854965723478L145.69749125,139.61326657808743L145.7141,118.19730272659889L145.74178125,128.1986198241894L146.11271,130.6915121445289L146.2123625,128.9578675856957L146.62758125,134.63990824039166L146.843495,126.4293778676253L146.84903125,138.04920469797574L147.7182225,133.6879131977375L147.95074499999998,127.03949700869046L147.95628125,134.82207303780777L148.31613750000002,135.26956926859341L148.34935499999997,135.15001641787015L148.4932975,130.68204958622272L148.60955875,113.61118213947003L148.64277625,130.8536708538349L148.97495125,131.95716421420758L149.30158999999998,130.57823736851032L149.47875000000002,133.10012439581064L149.51750374999997,129.5193819632897L150.70226125,124.97294893631569L150.8406675,115.55047746805045L150.91263875,124.4605781848614L151.0621175,129.5021773118239L151.10087125,132.93302178382874L151.18945125,139.36357839290912L151.23374125,128.89819341439465L151.31124875,129.3997966509599L151.46626375,136.93461433740762L151.84826500000003,128.4289706303523L151.86487375,138.5415076842675L152.09739624999997,132.92577959940985L152.291165,127.77899188261766L152.49600625,131.5107262317951L152.999805,127.71203657296988L153.088385,136.42636945614447L153.68076375,131.1301788183359L153.71951750000002,136.21247830757727L153.7859525,130.4302254273341L154.06830125,127.04177581346951L154.13473625,127.50042585226205L154.63299875,135.68850902410654L154.64960749999997,133.8159222969642L155.46343625,131.2171045083266L155.48558125,126.714715389105L155.4911175,137.81001784251288L155.72364,135.57380269123956L155.78453875,128.94586003743686L155.81222000000002,129.10195167248065L155.83990125,135.29919697688177L156.02813375000002,127.41189655890831L156.08349625,135.56456736417917L156.22743875,135.36841810666598L156.47657,127.2992158302894L156.60390375,134.38318887123694L156.8862525,137.08133268356323L157.01912249999998,127.69660107906049L157.12431125,123.9170150756836L157.20181875,126.20433128797092L157.384515,126.15771317481995L158.01011125,122.8241171836853L158.2813875,126.65855680979215L158.72982375,129.46709929979764L158.79072250000002,125.59172883400551L158.9014475,127.24858221640953L159.2336225,127.78979185911325L159.30559375,131.46366988695584L159.510435,119.75093793869019L159.62116,129.85717094861545L159.68205875,121.59292635550865L160.21353875,129.3494811608241L160.99415,133.6798951809223L161.21006375,120.41426165287311L161.37061500000002,128.66831330152658L161.58652875,129.68887050335223L161.85226875,130.5698622740232L162.11800875,132.75242163584784L162.12908125,140.17047330049368L162.17337125,138.75648467357342L162.33945875,129.8390768491305L162.4667925,139.02446335095627L162.54430000000002,125.94341463309068L162.85986624999998,133.2116040449876L163.6404775,134.10260697511526L163.6626225,127.79884540117703L163.9947975,132.91042201335614L164.249465,134.24282813072205L164.41555250000002,128.88381616885846L164.53735,125.22212747427133L164.58164,131.96610414064847L165.2570625,126.91538654840909L165.42315,128.40348826921903L165.5449475,131.20016604203443L165.72764375,134.73818250802847L166.13732625,125.17811602812547L166.35324,122.51282985393817L166.8293575,130.01811559383685L167.23350375,129.96719631781946L167.37190999999999,123.17216403667743L167.44388125,129.07532666279718L167.4937075,130.24389905195972L167.93107125,136.554600917376L168.25771,126.48815934474652L168.8888425,139.17163291344275L168.97188624999998,121.50857487091652L169.40925,133.28394473516025L169.7524975,129.71900785886325L169.89090374999998,140.77311977973352L170.38362999999998,130.73951636827908L170.58847125,134.86612019172082L170.78223999999997,127.66490881259625L170.96493625,129.56402641076306L171.1919225,129.3591125194843L171.7898375,133.55145109616794L171.8784175,133.42565587850717L171.99467875,131.44544918720538L172.044505,132.22129132197455L172.133085,127.20159079478337L172.48186875,132.9442892074585L172.487405,137.03775784602533L172.5649125,132.61324574397162L173.1739,133.5749110992138L173.24587125,127.57498367016132L173.30677,124.66402805768527L173.86039499999998,135.43502607712378L174.23132375,138.5615429878235L174.46384625000002,128.35330911783072L175.33857375,134.65621045919565L175.80361875,122.71771777593173L175.81469125,124.24089101644662L176.0416775,129.7527614373427L176.04721375,140.89062430308417L176.13579375,136.88532788019913L176.207765,134.77176079383264L176.2188375,133.6903640490312L176.76692625,130.670688023934L177.59736375,130.4560681123L177.95168375,134.166007738847L177.98490125,136.73479854143582L178.01811875,137.2137143611908L178.04026374999998,135.53301468262305L178.04579999999999,127.02937223361089L178.46101875000002,132.91269757197455L178.68246875,132.9534823344304L178.98696249999998,134.02865618925827L179.65131250000002,134.42259076925424L179.69560249999998,135.73487069056586L179.9613425,138.95733761787415L180.3156625,137.16445874250851L180.33227125000002,136.53731186573322L180.503895,147.75710458021896L180.5592575,136.19462604706104L180.59801125,134.31844744315515L180.69766375,132.38723180844232L181.01323,135.48182597527136L181.123955,140.3907772394327L181.14056374999998,135.75115992472723L181.25682500000002,121.78391421758212L181.7329425,131.34649971815256L182.23674125000002,131.70011373666617L182.24781374999998,130.06896994664118L182.42497375000002,128.04159978719858L182.52462624999998,139.50286303116724L184.091385,133.56862003986652L184.2353275,139.93032720455756L184.4789225,142.18741029959457L184.78341625000002,137.1078375853025L185.12666375,136.47959999854749L185.198635,125.33284427569463L185.70797000000002,128.76185791309064L185.86852125,135.57931467202994L186.08443499999998,139.90026937998257L186.44429125000002,129.6792358985314L187.634585,133.52561814968402L188.07194875000002,131.52804449888376L188.21589125,127.97859830122728L188.33768874999998,130.3078321860387L188.4428775,130.04854185764606L188.55360249999998,130.79313644996057L188.58128374999998,136.1194563278785L188.66986375,137.53124730403607L188.73629875,126.928059559602L188.82487874999998,130.76494679084192L188.9743575,136.61591277672693L189.3508225,130.04178659732526L189.62209875,134.39803031774667L189.69407,135.02088090089651L189.73836,127.62469537441547L190.26430374999998,139.03742689352768L190.84561000000002,138.1894290997432L190.88436375,136.6898570702626L190.93419,127.97045693030724L191.2110025,132.99587394640997L191.22761125,127.23851911838238L191.3438725,138.13225447214566L191.4103075,125.80161259724544L191.51549625,134.70166969299316L191.62068499999998,128.027563388531L192.373615,126.38566831442026L192.82205125,125.99810594778795L192.8275875,129.83977801983173L193.01582,131.19817289939294L193.12100875,129.71685240818903L193.37567625,135.02153337918796L193.77428625,139.4683336202915L193.8019675,138.15787317202643L193.94591,134.81054916748633L194.20057749999998,131.48387399086585L194.28362125,137.51205275608942L194.73759375,135.57331901330215L194.9756525,132.36920587833112L195.08637750000003,139.05161910790665L195.11959499999998,142.17769778691806L195.19156625,136.52400909937344L195.34658124999999,128.978678721648L195.58463999999998,134.19728449674753L196.17701875,135.73564327680148L196.315425,136.40588455933792L196.35417875,133.10068922776443L196.37632375,130.78402772316565L196.92441250000002,135.56706366172205L196.94102125,134.04474740761978L197.16247125,138.78718848411853L197.68287875,138.7252436234401L197.76038625,140.84121124561017L197.86003875,135.33940067658057L198.09256125000002,131.86866089013907L198.64065,142.49049458136926L199.59842125,134.38726604901828L199.8918425,139.75874651395358L200.4897575,130.5544495032384L200.55065625,134.4972329873305L201.231615,133.04572848173288L201.55825375,139.97146579852472L201.763095,132.46284462855414L201.87935624999997,134.79250051425055L202.08419750000002,137.70223719340103L202.2835025,136.29854051883405L202.427445,134.32284599084122L202.7706925,138.60364406842453L203.16376625,128.9882029570066L203.30770875,122.69429023449237L203.52915875,141.63555000378534L203.78382624999998,137.86403557887445L204.1436825,130.4889874274914L204.18243625000002,136.61339700222015L204.22672624999998,137.48917868504157L204.49246624999998,134.85133068378155L204.5422925,128.26422148484448L204.86893125,126.21469952509953L204.9409025,134.32942920464737L205.74365875,138.7081590799185L205.81009375000002,132.62929151608392L205.99279,129.97374057769775L206.2253125,135.9318379805638L206.58516874999998,137.70989001714267L206.99485125,129.9050842798673L207.25505500000003,140.33416744378897L207.45436,136.42638568694775L207.61491125,135.36795390569247L207.7754625,132.326791543227L207.84743375,127.89068902455844L207.8640425,129.11467337608337L208.229435,142.1921010017395L208.24604374999998,143.65125021567712L208.4841025,132.84029845091013L208.75537875,132.67019963264465L209.06540875000002,140.34984964590805L209.79619375000001,130.22066952632025L209.83494750000003,134.60779397304242L209.84048374999998,138.93656218968906L209.8792375,127.65045041304369L210.23909375,140.77979388603796L210.39410875,132.41048730336703L210.46054375,134.03396041576678L210.53251500000002,131.25094573314374L210.57126875,125.67977769558246L211.20240125,138.1608401628641L211.22454625,132.3253242786114L211.374025,129.97693479978122L211.3850975,134.55050572982202L211.75602625,133.73812481073233L211.88336,133.56911345628592L212.2708975,138.72711341197675L212.32626000000002,142.65534435785733L212.42037624999998,134.00489429327158L212.45913,132.26867877520047L212.47573875,127.18013367286095L212.55324625,138.10294813376206L212.614145,128.0914835379674L213.367075,140.60067561039557L213.57191625,134.58660628245428L213.87641,138.6053710258924L213.91516375,134.12778095098642L214.27501999999998,133.33952874403732L214.41342625000001,133.09158699329083L214.4632525,138.31228491893182L214.5296875,134.98893868006192L214.63487625,131.70709622823276L214.7289925,139.4191429248223L214.81203625,129.6801318388719L215.02795,133.02348254277155L215.094385,131.98399373201224L215.23279125,135.66421151161194L215.39887875000002,139.97093180509714L215.43763249999998,135.95720997223486L215.758735,140.86062328632062L216.0134025,136.44124174118042L216.11859125,137.79015458547153L216.157345,140.61904887969678L216.4120125,143.149280162958L216.6998975,127.4367167032682L216.71650625,132.66740468832162L216.91027499999998,132.25620377980746L217.42514625,132.9455065177037L217.61337874999998,132.52065225747916L217.6299875,134.99972567191492L217.91787250000002,134.22832103875967L217.92340875,141.3435318836799L218.03967,136.11630755204422L218.34416375,138.68875515460968L218.8258175,131.57030626443716L218.83135375,131.32630210656384L218.97529624999999,139.7251422588642L219.04173125,138.7063120145064L219.124775,136.61384172622974L219.2355,137.28205253527716L219.28532625,136.58165928950677L219.3351525,135.85255699891312L219.50124,132.05060819479135L219.77251625,143.94764253726373L220.07701,132.01772783352777L220.25417000000002,132.19007624112643L220.3759675,139.4008475633768L220.78011375,131.3875961120312L221.62162375,141.10844168296228L221.8929,128.77035636168262L222.092205,131.41374393609854L222.43545250000003,134.55367398262024L222.86174375000002,132.98975493357733L222.8783525,141.2397326506101L223.2991075,137.45193873001978L223.41536875,134.15351326649005L223.45965875,136.98967733749976L223.53163,136.3158214550752L223.5427025,133.82554716330307L223.57592,136.67647477296683L223.93024,131.1887850027818L224.1184725,132.0292095037607L224.12954499999998,129.02353741572455L224.13508124999998,137.1574794971026L224.61119875,133.62021451729996L224.6278075,138.3977774289938L224.77728625,135.21673151162955L225.72398500000003,136.6066336264977L225.76273874999998,141.6767859825721L226.12813125,136.0194843182197L226.1558125,136.76006990212662L226.388335,132.31888714203467L226.7315825,139.38791161317093L226.82569875000002,134.18924375680777L226.831235,136.85983091134293L227.1966275,140.1670550933251L227.3073525,141.91098348910992L227.51219375,134.92656370309683L227.51773,134.85639144824103L227.53433875000002,132.61164214060858L227.89973125,141.9515945819708L228.18761625,123.60984712380629L228.27066000000002,137.038858294487L228.35370375,137.13439442561224L228.44228375,131.85008311271667L228.51425500000002,139.86678523283737L228.70802375,136.77222028145422L228.8132125,138.52365055451025L228.85196625,135.25057273644668L230.14191250000002,140.84687741903159L230.4740875,140.50524984873257L230.64017500000003,140.34305380857907L230.74536375,131.97951078414917L231.23809,132.9555955850161L231.45400375,139.33616456618677L231.47614875,130.6821632018456L231.52597500000002,134.58333739867578L231.55919250000002,143.45885838912085L231.69759875,135.78974703642038L232.01316500000001,132.1207934342898L232.25122375,132.4432183412405L232.8214575,119.94616853273831L233.15916875000002,116.06803883039035L233.4636625,123.0860855946174L233.64635875000002,127.46582502585191L233.8512,136.84149659596957L234.24981,134.72361049285303L234.2830275,127.37031648709224L234.33285375,139.89920950852908L234.63181125,131.3921634600713L235.04703,134.85036657406732L235.10239249999998,134.96555658487173L235.2352625,133.12415896929227L235.6338725,131.843636237658L236.1210625,134.49240594643814L236.31483125,136.07648689930255L236.6525425,133.39365847294147L236.75773124999998,129.28129880244916L236.99579,140.12548151383032L237.37779125,135.13630788142865L237.7376475,137.2155338342373L237.85944500000002,134.7691281575423L238.56808500000002,130.7741269331712L239.12724624999998,137.89739799499512L239.43174,126.19939712377695L239.51478375000002,136.32563135257135L239.896785,126.57122534971971L240.0850175,141.13180754734918L240.4947,127.96095866423387L240.58328,135.72496340825006L240.64417875,131.59352280543402L240.83241125,139.11960182740137L241.27531125,138.76871458383707L241.6130225,141.33800042592563L241.61855875,140.01719121749585L241.7016025,139.32156008940476L241.93966125,131.57480544310351L242.05038625,140.5187668616955L242.288445,135.7007632805751L242.31612625000002,140.81146992169894L242.71473625000002,136.7954076070052L243.49534749999998,143.5461427798638L243.51195625,135.57839600856488L243.62268125,133.79351080380954L243.6282175,134.60654095503L243.64482625,130.77637327634372L244.3811475,143.36933090136603L244.91262749999999,136.89069053759943L245.0233525,136.29731996242816L245.23926625,139.7754967029278L245.300165,137.59279451003442L246.63440125,141.72022935060355L246.87246,132.74266043076148L247.09944625,134.0738394994002L247.48698374999998,122.11762927128719L247.64199875,127.37715614759006L247.9243475,132.92420845765335L248.46136375,114.01374176832346L248.50565375,127.61137637725243L248.6329875,120.70330628981957L248.66066874999999,124.36192087026743L248.754785,133.2019175015963L249.03713375,126.47368146823003L249.24751125,126.7397238107828L249.552005,133.13239447887128L250.304935,96.97171970514151L250.37690625,115.7601275077233L250.77551624999998,119.86578710262592L251.16859000000002,121.5807922069843" style="fill: none;" fill="none"></path></g></g></g></g></g></g><g transform="translate(53, 177)" clip-path="url(#clip_1)"><clipPath id="clip_1"><rect width="276" height="23"></rect></clipPath><g><g><line x1="0" y1="0" x2="0" y2="5" style="visibility: inherit;" fill="rgb(0, 0, 0)" stroke="rgb(204, 204, 204)" stroke-width="1px"></line><line x1="27.681250000000002" y1="0" x2="27.681250000000002" y2="5" style="visibility: inherit;" fill="rgb(0, 0, 0)" stroke="rgb(204, 204, 204)" stroke-width="1px"></line><line x1="55.362500000000004" y1="0" x2="55.362500000000004" y2="5" style="visibility: inherit;" fill="rgb(0, 0, 0)" stroke="rgb(204, 204, 204)" stroke-width="1px"></line><line x1="83.04375" y1="0" x2="83.04375" y2="5" style="visibility: inherit;" fill="rgb(0, 0, 0)" stroke="rgb(204, 204, 204)" stroke-width="1px"></line><line x1="110.72500000000001" y1="0" x2="110.72500000000001" y2="5" style="visibility: inherit;" fill="rgb(0, 0, 0)" stroke="rgb(204, 204, 204)" stroke-width="1px"></line><line x1="138.40625" y1="0" x2="138.40625" y2="5" style="visibility: inherit;" fill="rgb(0, 0, 0)" stroke="rgb(204, 204, 204)" stroke-width="1px"></line><line x1="166.0875" y1="0" x2="166.0875" y2="5" style="visibility: inherit;" fill="rgb(0, 0, 0)" stroke="rgb(204, 204, 204)" stroke-width="1px"></line><line x1="193.76874999999998" y1="0" x2="193.76874999999998" y2="5" style="visibility: inherit;" fill="rgb(0, 0, 0)" stroke="rgb(204, 204, 204)" stroke-width="1px"></line><line x1="221.45000000000002" y1="0" x2="221.45000000000002" y2="5" style="visibility: inherit;" fill="rgb(0, 0, 0)" stroke="rgb(204, 204, 204)" stroke-width="1px"></line><line x1="249.13125" y1="0" x2="249.13125" y2="5" style="visibility: inherit;" fill="rgb(0, 0, 0)" stroke="rgb(204, 204, 204)" stroke-width="1px"></line><line x1="276.8125" y1="0" x2="276.8125" y2="5" style="visibility: inherit;" fill="rgb(0, 0, 0)" stroke="rgb(204, 204, 204)" stroke-width="1px"></line></g><g transform="translate(0, 8)"><text x="0" y="0" dx="0em" dy="0.95em" style="text-anchor: middle; visibility: hidden; font-family: &quot;Helvetica Neue&quot;, sans-serif; font-size: 12px; font-weight: 200;" fill="rgb(50, 49, 63)" stroke="none" stroke-width="1px">-5k</text><text x="27.681250000000002" y="0" dx="0em" dy="0.95em" style="text-anchor: middle; visibility: inherit; font-family: &quot;Helvetica Neue&quot;, sans-serif; font-size: 12px; font-weight: 200;" fill="rgb(50, 49, 63)" stroke="none" stroke-width="1px">0</text><text x="55.362500000000004" y="0" dx="0em" dy="0.95em" style="text-anchor: middle; visibility: inherit; font-family: &quot;Helvetica Neue&quot;, sans-serif; font-size: 12px; font-weight: 200;" fill="rgb(50, 49, 63)" stroke="none" stroke-width="1px">5k</text><text x="83.04375" y="0" dx="0em" dy="0.95em" style="text-anchor: middle; visibility: inherit; font-family: &quot;Helvetica Neue&quot;, sans-serif; font-size: 12px; font-weight: 200;" fill="rgb(50, 49, 63)" stroke="none" stroke-width="1px">10k</text><text x="110.72500000000001" y="0" dx="0em" dy="0.95em" style="text-anchor: middle; visibility: inherit; font-family: &quot;Helvetica Neue&quot;, sans-serif; font-size: 12px; font-weight: 200;" fill="rgb(50, 49, 63)" stroke="none" stroke-width="1px">15k</text><text x="138.40625" y="0" dx="0em" dy="0.95em" style="text-anchor: middle; visibility: inherit; font-family: &quot;Helvetica Neue&quot;, sans-serif; font-size: 12px; font-weight: 200;" fill="rgb(50, 49, 63)" stroke="none" stroke-width="1px">20k</text><text x="166.0875" y="0" dx="0em" dy="0.95em" style="text-anchor: middle; visibility: inherit; font-family: &quot;Helvetica Neue&quot;, sans-serif; font-size: 12px; font-weight: 200;" fill="rgb(50, 49, 63)" stroke="none" stroke-width="1px">25k</text><text x="193.76874999999998" y="0" dx="0em" dy="0.95em" style="text-anchor: middle; visibility: inherit; font-family: &quot;Helvetica Neue&quot;, sans-serif; font-size: 12px; font-weight: 200;" fill="rgb(50, 49, 63)" stroke="none" stroke-width="1px">30k</text><text x="221.45000000000002" y="0" dx="0em" dy="0.95em" style="text-anchor: middle; visibility: inherit; font-family: &quot;Helvetica Neue&quot;, sans-serif; font-size: 12px; font-weight: 200;" fill="rgb(50, 49, 63)" stroke="none" stroke-width="1px">35k</text><text x="249.13125" y="0" dx="0em" dy="0.95em" style="text-anchor: middle; visibility: inherit; font-family: &quot;Helvetica Neue&quot;, sans-serif; font-size: 12px; font-weight: 200;" fill="rgb(50, 49, 63)" stroke="none" stroke-width="1px">40k</text><text x="276.8125" y="0" dx="0em" dy="0.95em" style="text-anchor: middle; visibility: hidden; font-family: &quot;Helvetica Neue&quot;, sans-serif; font-size: 12px; font-weight: 200;" fill="rgb(50, 49, 63)" stroke="none" stroke-width="1px">45k</text></g><line x1="0" y1="0" x2="276.8125" y2="0" fill="rgb(0, 0, 0)" stroke="rgb(204, 204, 204)" stroke-width="1px"></line></g></g></g></g></svg>